<?xml version="1.0" encoding="UTF-8"?>
<svg xmlns="http://www.w3.org/2000/svg" viewBox="6 6 88 88" xml:space="preserve">
<g transform="translate(-2, 0)">
<!-- Top face (lightest brown) -->
<path d="M21.62,68.66a.45.45,0,0,1-.13-.3v-1L52.34,14.5l.38-.22a.46.46,0,0,1,.23-.06.53.53,0,0,1,.24.06l.38.22L84.41,67.35v1a.47.47,0,0,1-.12.3Z" fill="#CD853F"/>

<!-- Left face (medium brown) -->
<path d="M21.73,32.17L50.59,15.51,21.49,65.37V32.58A.47.47,0,0,1,21.73,32.17Z" fill="#D2691E"/>

<!-- Right face (medium brown) -->
<path d="M84.41,32.58V65.37L55.31,15.51,84.17,32.17A.47.47,0,0,1,84.41,32.58Z" fill="#D2691E"/>

<!-- Bottom face (darkest brown) -->
<path d="M53.19,86.66a.49.49,0,0,1-.47,0l-29.46-17H82.64Z" fill="#A0522D"/>

<!-- Outline with black fill -->
<path d="M86.17,28.71l-31-17.89a4.49,4.49,0,0,0-4.47,0l-31,17.89a4.49,4.49,0,0,0-2.24,3.87V68.36a4.47,4.47,0,0,0,2.24,3.87l31,17.89a4.42,4.42,0,0,0,2.23.6,4.48,4.48,0,0,0,2.24-.6l31-17.89a4.48,4.48,0,0,0,2.24-3.87V32.58A4.49,4.49,0,0,0,86.17,28.71ZM21.62,68.66a.45.45,0,0,1-.13-.3v-1L52.34,14.5l.38-.22a.46.46,0,0,1,.23-.06.53.53,0,0,1,.24.06l.38.22L84.41,67.35v1a.47.47,0,0,1-.12.3ZM84.41,32.58V65.37L55.31,15.51,84.17,32.17A.47.47,0,0,1,84.41,32.58Zm-62.68-.41L50.59,15.51,21.49,65.37V32.58A.47.47,0,0,1,21.73,32.17ZM53.19,86.66a.49.49,0,0,1-.47,0l-29.46-17H82.64Z" fill="black"/>
</g>
</svg>