<?xml version="1.0" encoding="UTF-8"?>
<svg xmlns="http://www.w3.org/2000/svg" xmlns:xlink="http://www.w3.org/1999/xlink" version="1.1" viewBox="0 0 100 100" xml:space="preserve">
<g transform="translate(10, 5) scale(0.8)">
<path d="M80.8,30.5L52.75,13.55c-0.92-0.55-2.06-0.58-3-0.06L21.05,29.3c-0.94,0.52-1.53,1.5-1.55,2.57l-0.65,32.77   c-0.02,1.07,0.53,2.07,1.45,2.63l28.05,16.95c0.48,0.29,1.01,0.43,1.55,0.43c0.5,0,1-0.12,1.45-0.37l28.7-15.82   c0.94-0.52,1.53-1.5,1.55-2.57l0.65-32.77C82.27,32.05,81.72,31.05,80.8,30.5z M75.83,54.3L58.67,24.13l17.54,10.6L75.83,54.3z    M73.42,62.21l-45.21-0.45l22.57-39.37L73.42,62.21z M42.87,24.13l-17.83,31.1l0.43-21.51L42.87,24.13z M49.96,78.18L32.79,67.81   l35.36,0.35L49.96,78.18z" fill="#8B4513"/>
</g>
</svg>